<svg width="128" height="128" viewBox="0 0 128 128" fill="none" xmlns="http://www.w3.org/2000/svg">
  <rect width="128" height="128" rx="28" fill="#17222B"/>
  <path d="M28 92L56 32H72L100 92H84.5L78.5 78H49L43 92H28ZM54.5 66H73L63.75 45L54.5 66Z" fill="#F4F1EA"/>
  <path d="M28 103V97H100V103H28Z" fill="#B55B2F"/>
  <path d="M86 38H101C107.627 38 113 43.3726 113 50C113 55.8574 108.813 60.7341 103.277 61.7982L113 78H99.5L91 63.5H86V78H72V38H86ZM86 51.5H99C100.933 51.5 102.5 49.933 102.5 48C102.5 46.067 100.933 44.5 99 44.5H86V51.5Z" fill="#B55B2F"/>
</svg>
